<?xml version="1.0" encoding="utf-8"?>
<!-- Generator: Adobe Illustrator 25.0.0, SVG Export Plug-In . SVG Version: 6.00 Build 0)  -->
<svg version="1.1" id="Capa_1" xmlns="http://www.w3.org/2000/svg" xmlns:xlink="http://www.w3.org/1999/xlink" x="0px" y="0px"
	 width="16px" height="16px" viewBox="0 0 16 16" style="enable-background:new 0 0 16 16;" xml:space="preserve">
<style type="text/css">
	.st0{fill-rule:evenodd;clip-rule:evenodd;}
	.st1{display:none;fill-rule:evenodd;clip-rule:evenodd;fill:#ACD9B2;}
	.st2{display:none;}
	.st3{fill:#004D00;}
</style>
<path class="st0" d="M3.7,8.7v6.7c0,0.3-0.3,0.6-0.6,0.6H0.6C0.3,16,0,15.7,0,15.4V3.3C0,3,0.2,2.8,0.4,2.7c0,0,5.4-2,6.9-2.6
	C7.8,0,8.2,0,8.7,0.1c1.6,0.6,6.9,2.6,6.9,2.6c0.3,0.1,0.5,0.5,0.4,0.8c-0.1,0.3-0.5,0.5-0.8,0.3c0,0-5.4-2-6.9-2.6
	c-0.1-0.1-0.3-0.1-0.4,0L1.2,3.7v11.1h1.2V5.7c0-0.3,0.3-0.6,0.6-0.6h9.8c0.3,0,0.6,0.3,0.6,0.6v9.1h1.2V5.7c0-0.3,0.3-0.6,0.6-0.6
	c0.3,0,0.6,0.3,0.6,0.6v9.7c0,0.3-0.3,0.6-0.6,0.6h-2.5c-0.3,0-0.6-0.3-0.6-0.6V8.7H3.7z M12.3,7.5V6.3H3.7v1.2H12.3z"/>
<path class="st1" d="M6.6,14.9c0.2,0,0.4,0,0.6-0.1c0.2,0,0.4-0.1,0.6-0.2s0.3-0.3,0.4-0.5c0.1-0.2,0.2-0.5,0.2-0.8
	c0-0.3-0.1-0.5-0.2-0.7c-0.1-0.2-0.3-0.3-0.5-0.4c0,0-0.1,0-0.1-0.1l-0.1,0l0.1,0c0.1-0.1,0.2-0.2,0.3-0.3l0.1-0.1
	C8,11.6,8,11.4,8,11.2c0-0.4-0.1-0.7-0.3-0.9S7.1,9.9,6.6,9.9H4.8c-0.1,0-0.2,0-0.3,0.1c-0.1,0.1-0.1,0.2-0.1,0.3v4.1
	c0,0.1,0,0.2,0.1,0.3c0.1,0.1,0.2,0.1,0.3,0.1H6.6z M5.3,10.7h1.2c0.2,0,0.3,0,0.4,0.1C7,11,7.1,11.1,7.1,11.3
	c0,0.2-0.1,0.3-0.2,0.4c-0.1,0.1-0.2,0.1-0.4,0.1H5.3V10.7z M6.5,12.7H5.3v1.4h1.3c0.2,0,0.4-0.1,0.5-0.2c0.1-0.1,0.2-0.3,0.2-0.5
	c0-0.2,0-0.4-0.1-0.5c-0.1-0.1-0.2-0.2-0.3-0.2C6.8,12.7,6.6,12.7,6.5,12.7z"/>
<path class="st2" d="M9.2,14.9c0.1,0,0.2,0,0.3-0.1c0.1-0.1,0.1-0.2,0.1-0.3v-1.7h1.4c0.1,0,0.2,0,0.2-0.1l0,0
	c0.1-0.1,0.1-0.2,0.1-0.3c0-0.1,0-0.2-0.1-0.3C11.3,12,11.2,12,11.1,12H9.6v-1.3h1.8c0.1,0,0.2,0,0.2-0.1l0,0
	c0.1-0.1,0.1-0.2,0.1-0.3c0-0.1,0-0.2-0.1-0.3c-0.1-0.1-0.2-0.1-0.3-0.1H9.2c-0.1,0-0.2,0-0.3,0.1c-0.1,0.1-0.1,0.2-0.1,0.3v4.1
	c0,0.1,0,0.2,0.1,0.3C9,14.9,9.1,14.9,9.2,14.9z"/>
<path class="st3" d="M6.3,14.9c0.1,0,0.2,0,0.3-0.1c0.1-0.1,0.1-0.2,0.1-0.3v-1.7l1.3-2.1c0,0,0-0.1,0-0.1l0,0c0,0,0-0.1,0-0.1
	c0-0.1,0-0.2-0.1-0.3C7.8,9.9,7.7,9.9,7.6,9.9c-0.1,0-0.2,0.1-0.3,0.2l-1,1.7l-1.1-1.7C5.1,10,5,9.9,4.9,9.9l0,0
	c-0.1,0-0.2,0-0.3,0.1c-0.1,0.1-0.1,0.2-0.1,0.3c0,0,0,0.1,0,0.2s0,0.1,0.1,0.2l1.3,2v1.8c0,0.1,0,0.2,0.1,0.3l0,0
	C6.1,14.9,6.2,14.9,6.3,14.9z"/>
<path d="M10.1,14.9c0.3,0,0.6-0.1,0.9-0.2c0.3-0.1,0.5-0.3,0.6-0.5s0.2-0.5,0.2-0.8c0-0.2,0-0.4-0.1-0.6c-0.1-0.2-0.2-0.3-0.3-0.4
	c-0.1-0.1-0.3-0.2-0.5-0.3c-0.2-0.1-0.4-0.1-0.7-0.2c-0.2,0-0.4-0.1-0.5-0.1c-0.1-0.1-0.3-0.1-0.3-0.2c-0.1-0.1-0.1-0.2-0.1-0.3
	c0-0.1,0-0.2,0.1-0.3c0.1-0.1,0.2-0.2,0.3-0.2c0.1-0.1,0.3-0.1,0.5-0.1c0.1,0,0.2,0,0.4,0.1c0.1,0,0.3,0.1,0.4,0.1
	c0.1,0.1,0.2,0.1,0.3,0.2c0.1,0,0.1,0.1,0.2,0.1c0.1,0,0.2,0,0.3-0.1c0.1-0.1,0.1-0.2,0.1-0.3c0-0.1-0.1-0.3-0.2-0.4
	c-0.2-0.1-0.4-0.3-0.6-0.3c-0.3-0.1-0.5-0.1-0.8-0.1c-0.3,0-0.6,0.1-0.9,0.2c-0.3,0.1-0.5,0.3-0.6,0.5c-0.2,0.2-0.2,0.5-0.2,0.8
	c0,0.2,0,0.4,0.1,0.5c0.1,0.2,0.2,0.3,0.3,0.4c0.1,0.1,0.3,0.2,0.5,0.3c0.2,0.1,0.4,0.1,0.6,0.2c0.3,0,0.5,0.1,0.6,0.2
	c0.2,0.1,0.3,0.1,0.4,0.2c0.1,0.1,0.1,0.2,0.1,0.4c0,0.1,0,0.2-0.1,0.3c-0.1,0.1-0.2,0.2-0.3,0.2c-0.1,0.1-0.3,0.1-0.5,0.1
	c-0.2,0-0.5,0-0.6-0.1c-0.2-0.1-0.3-0.2-0.5-0.3c-0.1-0.1-0.1-0.1-0.2-0.1c-0.1,0-0.2,0-0.3,0.1c-0.1,0.1-0.1,0.2-0.1,0.3
	c0,0.1,0,0.1,0,0.2c0,0.1,0.1,0.1,0.1,0.2c0.2,0.2,0.5,0.3,0.7,0.4C9.5,14.9,9.7,14.9,10.1,14.9z"/>
</svg>
